HIERARCHY
ROOT joint_Root
{
	OFFSET 0.0 0.0 0.0
	CHANNELS 6 Xposition Yposition Zposition Zrotation Xrotation Yrotation 
	JOINT Hips
	{
		OFFSET -17.1583 93.1646 452.98
		CHANNELS 6 Xposition Yposition Zposition Zrotation Xrotation Yrotation 
		JOINT Spine
		{
			OFFSET 15.7357 0.0 0.0
			CHANNELS 6 Xposition Yposition Zposition Zrotation Xrotation Yrotation 
			JOINT Chest
			{
				OFFSET 8.98455 -0.406207 0.0
				CHANNELS 6 Xposition Yposition Zposition Zrotation Xrotation Yrotation 
				JOINT Neck
				{
					OFFSET 16.3773 0.0 0.0
					CHANNELS 6 Xposition Yposition Zposition Zrotation Xrotation Yrotation 
					JOINT Head
					{
						OFFSET 6.45672 0.0 0.0
						CHANNELS 6 Xposition Yposition Zposition Zrotation Xrotation Yrotation 
						End Site
						{
							OFFSET 0.0 0.0 0.0
						}
					}
				}
				JOINT Shoulder_L
				{
					OFFSET 12.9942 -0.242716 4.98039
					CHANNELS 6 Xposition Yposition Zposition Zrotation Xrotation Yrotation 
					JOINT UpperArm_L
					{
						OFFSET 5.34809 0.0 0.0
						CHANNELS 6 Xposition Yposition Zposition Zrotation Xrotation Yrotation 
						JOINT LowerArm_L
						{
							OFFSET 24.3286 1.87007e-05 0.0
							CHANNELS 6 Xposition Yposition Zposition Zrotation Xrotation Yrotation 
							JOINT Hand_L
							{
								OFFSET 22.2916 0.0 0.0
								CHANNELS 6 Xposition Yposition Zposition Zrotation Xrotation Yrotation 
								End Site
								{
									OFFSET 0.0 0.0 0.0
								}
							}
						}
					}
				}
				JOINT Shoulder_R
				{
					OFFSET 12.9945 -0.242716 -4.98039
					CHANNELS 6 Xposition Yposition Zposition Zrotation Xrotation Yrotation 
					JOINT UpperArm_R
					{
						OFFSET -5.34813 0.0 0.0
						CHANNELS 6 Xposition Yposition Zposition Zrotation Xrotation Yrotation 
						JOINT LowerArm_R
						{
							OFFSET -24.3289 0.000322201 0.0
							CHANNELS 6 Xposition Yposition Zposition Zrotation Xrotation Yrotation 
							JOINT Hand_R
							{
								OFFSET -22.2915 -0.000108084 0.0
								CHANNELS 6 Xposition Yposition Zposition Zrotation Xrotation Yrotation 
								End Site
								{
									OFFSET 0.0 0.0 0.0
								}
							}
						}
					}
				}
			}
		}
		JOINT UpperLeg_L
		{
			OFFSET -2.19248 -6.46944 0.0
			CHANNELS 6 Xposition Yposition Zposition Zrotation Xrotation Yrotation 
			JOINT LowerLeg_L
			{
				OFFSET 39.0811 0.0 -1.23785e-05
				CHANNELS 6 Xposition Yposition Zposition Zrotation Xrotation Yrotation 
				JOINT Foot_L
				{
					OFFSET 40.9854 0.0 -1.26872e-05
					CHANNELS 6 Xposition Yposition Zposition Zrotation Xrotation Yrotation 
					JOINT Toes_L
					{
						OFFSET 11.7543 0.0 0.0
						CHANNELS 6 Xposition Yposition Zposition Zrotation Xrotation Yrotation 
						End Site
						{
							OFFSET 0.0 0.0 0.0
						}
					}
				}
			}
		}
		JOINT UpperLeg_R
		{
			OFFSET -2.19251 6.46944 0.0
			CHANNELS 6 Xposition Yposition Zposition Zrotation Xrotation Yrotation 
			JOINT LowerLeg_R
			{
				OFFSET -39.0811 -0.00228153 -0.0401928
				CHANNELS 6 Xposition Yposition Zposition Zrotation Xrotation Yrotation 
				JOINT Foot_R
				{
					OFFSET -40.9854 0.0 0.0
					CHANNELS 6 Xposition Yposition Zposition Zrotation Xrotation Yrotation 
					JOINT Toes_R
					{
						OFFSET -11.7543 0.0 0.0
						CHANNELS 6 Xposition Yposition Zposition Zrotation Xrotation Yrotation 
						End Site
						{
							OFFSET 0.0 0.0 0.0
						}
					}
				}
			}
		}
	}
}
MOTION
Frames:	9
Frame Time:	0.0333333
0.000000 0.000000 0.000000 0.000000 0.000000 -0.000000 177.139000 92.044900 207.200000 96.388100 -55.818400 2.113990 15.735700 0.000005 -0.000001 46.023400 86.268000 -46.414300 8.984550 -0.406207 -0.000000 -2.416120 -5.146380 -0.890758 16.377300 -0.000001 -0.000001 -0.890977 -5.278450 -3.684290 6.456720 -0.000001 -0.000000 8.007400 -7.402120 3.535000 12.994200 -0.242716 4.980390 -92.093800 6.645620 -72.468500 5.348090 -0.000007 -0.000001 -51.314700 -20.033400 -16.779100 24.328600 0.000019 0.000005 19.101700 15.038900 -53.157100 22.291600 -0.000001 0.000005 14.449400 4.874500 9.882480 12.994500 -0.242716 -4.980390 89.541000 1.472090 -72.680700 -5.348130 -0.000001 -0.000004 -49.815300 -9.925490 22.174800 -24.328900 0.000322 -0.000009 0.542258 9.361880 -3.336230 -22.291500 -0.000108 -0.000004 17.333300 5.100300 5.106910 -2.192480 -6.469440 -0.000000 -173.715000 -22.267400 6.787190 39.081100 -0.000007 -0.000012 -0.038600 0.132824 16.204100 40.985400 -0.000006 -0.000013 -16.948300 5.074530 -58.018800 11.754300 -0.000000 0.000003 -0.007499 -0.083903 -19.992900 -2.192510 6.469440 -0.000001 -172.004000 0.245288 151.737000 -39.081100 -0.002282 -0.040193 -0.042849 0.086313 28.135100 -40.985400 0.000008 0.000006 1.693270 -16.487300 -63.043100 -11.754300 -0.000006 -0.000006 0.001511 0.136397 -11.042000
0.000000 0.000000 0.000000 0.000000 0.000000 -0.000000 174.802000 91.328600 209.859000 96.077400 -56.096700 1.077540 15.735700 0.000005 -0.000001 39.487400 86.145600 -39.600100 8.984550 -0.406207 -0.000000 -2.876580 -5.936630 -0.374850 16.377300 -0.000001 -0.000001 -1.570970 -5.114960 -3.447190 6.456720 -0.000001 -0.000000 7.365790 -6.712960 3.484130 12.994200 -0.242716 4.980390 -91.969600 6.381560 -72.808000 5.348090 -0.000007 -0.000001 -53.833500 -21.773400 -18.402100 24.328600 0.000019 0.000005 21.667800 12.550100 -61.323900 22.291600 -0.000001 0.000005 14.699300 4.900110 9.375720 12.994500 -0.242716 -4.980390 89.738000 0.832813 -72.537000 -5.348130 -0.000001 -0.000004 -46.619500 -11.586400 24.720600 -24.328900 0.000322 -0.000009 0.570536 10.828600 -3.039670 -22.291500 -0.000108 -0.000004 17.885100 5.074870 5.682590 -2.192480 -6.469440 -0.000000 -174.122000 -20.793100 7.457100 39.081100 -0.000007 -0.000012 -0.051791 0.163512 17.575000 40.985400 -0.000006 -0.000013 -16.334100 3.384290 -59.366000 11.754300 -0.000000 0.000003 -0.014837 -0.136801 -22.158100 -2.192510 6.469440 -0.000001 -171.167000 1.214780 152.888000 -39.081100 -0.002282 -0.040193 -0.015424 0.063884 16.358300 -40.985400 0.000008 0.000006 0.516139 -13.701600 -64.215600 -11.754300 -0.000006 -0.000006 0.001628 0.133146 -11.173900
0.000000 0.000000 0.000000 0.000000 0.000000 -0.000000 172.031000 90.462900 212.534000 95.421700 -55.827800 -0.175219 15.735700 0.000005 -0.000001 34.100500 86.074800 -33.859800 8.984550 -0.406207 -0.000000 -3.361310 -6.520690 0.290478 16.377300 -0.000001 -0.000001 -2.252550 -5.244500 -3.221790 6.456720 -0.000001 -0.000000 6.909850 -6.454810 3.363710 12.994200 -0.242716 4.980390 -91.879600 6.225870 -73.164200 5.348090 -0.000007 -0.000001 -56.682600 -21.142500 -19.949000 24.328600 0.000019 0.000005 24.049200 10.612100 -67.574200 22.291600 -0.000001 0.000005 16.015700 4.898160 9.413950 12.994500 -0.242716 -4.980390 89.780900 0.687296 -72.318000 -5.348130 -0.000001 -0.000004 -43.163200 -14.755900 27.299100 -24.328900 0.000322 -0.000009 0.549551 11.619300 -2.731660 -22.291500 -0.000108 -0.000004 19.181900 5.022360 6.839000 -2.192480 -6.469440 -0.000000 -174.020000 -19.231500 7.858050 39.081100 -0.000007 -0.000012 -0.065630 0.182005 19.828900 40.985400 -0.000006 -0.000013 -15.662300 2.063630 -60.230500 11.754300 -0.000000 0.000003 -0.028872 -0.212258 -25.269900 -2.192510 6.469440 -0.000001 -170.235000 2.149800 153.555000 -39.081100 -0.002282 -0.040193 -0.004020 0.051965 8.063100 -40.985400 0.000008 0.000006 0.164696 -13.411100 -64.588100 -11.754300 -0.000006 -0.000006 0.001539 0.135638 -11.072800
0.000000 0.000000 0.000000 0.000000 0.000000 -0.000000 168.703000 89.549200 215.323000 94.582100 -55.251800 -1.601520 15.735700 0.000005 -0.000001 28.763300 86.074600 -28.127400 8.984550 -0.406207 -0.000000 -3.964080 -6.942540 1.033070 16.377300 -0.000001 -0.000001 -3.126740 -5.397820 -3.083220 6.456720 -0.000001 -0.000000 6.778530 -6.470060 3.227730 12.994200 -0.242716 4.980390 -91.785000 6.071930 -73.584000 5.348090 -0.000007 -0.000001 -59.920600 -18.939800 -20.613900 24.328600 0.000019 0.000005 27.060000 9.450110 -72.181700 22.291600 -0.000001 0.000005 17.427300 4.869290 9.984270 12.994500 -0.242716 -4.980390 89.732800 0.825482 -72.063700 -5.348130 -0.000001 -0.000004 -40.375000 -18.221300 29.709200 -24.328900 0.000322 -0.000009 0.492832 11.045500 -2.576030 -22.291500 -0.000108 -0.000004 20.923200 4.989950 7.531500 -2.192480 -6.469440 -0.000000 -173.096000 -18.629700 8.325860 39.081100 -0.000007 -0.000012 -0.071442 0.173349 22.397800 40.985400 -0.000006 -0.000013 -14.881200 2.156950 -59.459900 11.754300 -0.000000 0.000003 -0.055708 -0.317573 -29.677000 -2.192510 6.469440 -0.000001 -168.943000 3.901980 151.885000 -39.081100 -0.002282 -0.040193 0.000563 0.020308 7.793440 -40.985400 0.000008 0.000006 -1.157810 -13.683300 -66.310300 -11.754300 -0.000006 -0.000006 0.001606 0.133765 -11.148800
0.000000 0.000000 0.000000 0.000000 0.000000 -0.000000 164.869000 88.671300 218.135000 92.541000 -55.480000 -4.671200 15.735700 0.000005 -0.000001 21.056800 86.387700 -19.740100 8.984550 -0.406207 -0.000000 -5.109570 -6.882580 2.330610 16.377300 -0.000001 -0.000001 -4.096760 -5.396660 -3.229280 6.456720 -0.000001 -0.000000 6.798230 -6.329910 2.864460 12.994200 -0.242716 4.980390 -91.829100 6.278460 -73.721800 5.348090 -0.000007 -0.000001 -62.772000 -15.648500 -19.621400 24.328600 0.000019 0.000005 29.439400 8.666530 -75.051100 22.291600 -0.000001 0.000005 18.174100 4.846850 10.421900 12.994500 -0.242716 -4.980390 89.685700 0.968422 -72.017800 -5.348130 -0.000001 -0.000004 -38.961000 -21.578000 31.296300 -24.328900 0.000322 -0.000009 0.394739 9.620750 -2.366650 -22.291500 -0.000108 -0.000004 23.132100 4.984720 7.642750 -2.192480 -6.469440 -0.000000 -171.414000 -18.640400 8.018340 39.081100 -0.000007 -0.000012 -0.049763 0.105123 25.331800 40.985400 -0.000006 -0.000013 -14.603600 1.997280 -56.953800 11.754300 -0.000000 0.000003 -0.108145 -0.464343 -35.998900 -2.192510 6.469440 -0.000001 -166.117000 4.626730 149.365000 -39.081100 -0.002282 -0.040193 -0.018392 0.110361 11.138400 -40.985400 0.000008 0.000006 6.975210 -14.011400 -61.908300 -11.754300 -0.000006 -0.000006 0.002147 0.114888 -11.914300
0.000000 0.000000 0.000000 0.000000 0.000000 -0.000000 160.659000 87.902700 221.091000 89.768100 -56.537800 -8.314390 15.735700 0.000005 -0.000001 12.263300 86.843400 -10.101200 8.984550 -0.406207 -0.000000 -6.322130 -6.424300 3.978510 16.377300 -0.000001 -0.000001 -5.108790 -4.971790 -3.498370 6.456720 -0.000001 -0.000000 6.780110 -6.124340 1.965540 12.994200 -0.242716 4.980390 -92.112600 7.163550 -73.521200 5.348090 -0.000007 -0.000001 -64.657300 -11.757300 -17.035200 24.328600 0.000019 0.000005 30.761500 8.437150 -76.152200 22.291600 -0.000001 0.000005 16.896300 4.859980 10.165400 12.994500 -0.242716 -4.980390 89.573400 1.326650 -72.173500 -5.348130 -0.000001 -0.000004 -39.642400 -23.489000 31.037800 -24.328900 0.000322 -0.000009 0.177755 6.401330 -1.601460 -22.291500 -0.000108 -0.000004 24.318800 5.007160 7.166460 -2.192480 -6.469440 -0.000000 -169.885000 -18.251400 6.753900 39.081100 -0.000007 -0.000012 0.017054 -0.029981 29.631000 40.985400 -0.000006 -0.000013 -14.019400 -0.007305 -52.289700 11.754300 -0.000000 0.000003 -0.186299 -0.621858 -43.132600 -2.192510 6.469440 -0.000001 -163.995000 3.008670 145.406000 -39.081100 -0.002282 -0.040193 0.014456 -0.030237 20.216400 -40.985400 0.000008 0.000006 14.771000 -14.745300 -57.001600 -11.754300 -0.000006 -0.000006 0.002044 0.119295 -11.735600
0.000000 0.000000 0.000000 0.000000 0.000000 -0.000000 156.201000 87.271200 224.153000 87.329300 -58.531700 -9.345040 15.735700 0.000005 -0.000001 19.034300 87.096800 -16.220300 8.984550 -0.406207 -0.000000 -5.739260 -5.812650 5.346720 16.377300 -0.000001 -0.000001 -5.866390 -4.302870 -3.213120 6.456720 -0.000001 -0.000000 6.024930 -5.452970 0.601495 12.994200 -0.242716 4.980390 -92.382800 8.061270 -73.472900 5.348090 -0.000007 -0.000001 -66.312700 -8.103360 -13.133900 24.328600 0.000019 0.000005 31.712000 9.417810 -75.167500 22.291600 -0.000001 0.000005 15.137100 4.910930 9.157590 12.994500 -0.242716 -4.980390 89.387800 1.922730 -72.335000 -5.348130 -0.000001 -0.000004 -42.991200 -24.191100 27.246900 -24.328900 0.000322 -0.000009 -0.000956 3.176850 0.000007 -22.291500 -0.000108 -0.000004 23.223200 5.015850 6.981410 -2.192480 -6.469440 -0.000000 -168.769000 -16.632700 6.219420 39.081100 -0.000007 -0.000012 0.125074 -0.171941 36.032900 40.985400 -0.000006 -0.000013 -11.442500 -2.062910 -44.378400 11.754300 -0.000000 0.000003 -0.194750 -0.636324 -43.811800 -2.192510 6.469440 -0.000001 -163.098000 2.220620 144.979000 -39.081100 -0.002282 -0.040193 0.088573 -0.147455 30.040400 -40.985400 0.000008 0.000006 13.638900 -13.892200 -60.929100 -11.754300 -0.000006 -0.000006 0.001148 0.145372 -10.677800
0.000000 0.000000 0.000000 0.000000 0.000000 -0.000000 151.847000 86.908500 226.922000 85.984700 -61.109500 -8.112020 15.735700 0.000005 -0.000001 36.371700 86.854300 -33.359500 8.984550 -0.406207 -0.000000 -3.895150 -5.368710 5.847940 16.377300 -0.000001 -0.000001 -6.171440 -3.508210 -2.775860 6.456720 -0.000001 -0.000000 4.842950 -4.385430 0.300300 12.994200 -0.242716 4.980390 -92.366400 7.977530 -73.418600 5.348090 -0.000007 -0.000001 -68.556600 -4.542500 -9.514160 24.328600 0.000019 0.000005 31.468300 12.441100 -70.608300 22.291600 -0.000001 0.000005 13.057100 4.968490 7.980450 12.994500 -0.242716 -4.980390 89.174200 2.607680 -72.420700 -5.348130 -0.000001 -0.000004 -49.184500 -24.211100 20.547500 -24.328900 0.000322 -0.000009 -0.001028 1.260630 -0.000003 -22.291500 -0.000108 -0.000004 20.411700 4.984240 7.652920 -2.192480 -6.469440 -0.000000 -168.508000 -14.139400 4.520990 39.081100 -0.000007 -0.000012 0.262014 -0.264448 44.735100 40.985400 -0.000006 -0.000013 -10.070800 -2.536030 -34.407600 11.754300 -0.000000 0.000003 -0.039614 -0.258578 -27.197700 -2.192510 6.469440 -0.000001 -162.475000 3.704470 148.262000 -39.081100 -0.002282 -0.040193 0.181528 -0.243160 36.242200 -40.985400 0.000008 0.000006 12.414200 -11.922400 -67.375600 -11.754300 -0.000006 -0.000006 -0.000390 0.173992 -9.515920
0.000000 0.000000 0.000000 0.000000 0.000000 -0.000000 148.045000 86.588100 228.916000 83.826000 -62.400400 -8.376640 15.735700 0.000005 -0.000001 44.755400 86.423400 -41.505100 8.984550 -0.406207 -0.000000 -2.573500 -5.370890 6.383840 16.377300 -0.000001 -0.000001 -5.629480 -3.133500 -2.780660 6.456720 -0.000001 -0.000000 3.947700 -3.859350 0.903559 12.994200 -0.242716 4.980390 -92.466200 8.216160 -73.228400 5.348090 -0.000007 -0.000001 -69.316300 0.663567 -8.710410 24.328600 0.000019 0.000005 28.862100 18.572800 -59.977000 22.291600 -0.000001 0.000005 9.569610 5.005910 7.190350 12.994500 -0.242716 -4.980390 88.781800 3.685110 -71.693800 -5.348130 -0.000001 -0.000004 -56.451500 -21.430300 12.538800 -24.328900 0.000322 -0.000009 -0.001068 0.268085 -0.000008 -22.291500 -0.000108 -0.000004 12.962400 5.016420 6.959890 -2.192480 -6.469440 -0.000000 -167.846000 -10.878500 -0.783665 39.081100 -0.000007 -0.000012 0.321525 -0.228001 54.658400 40.985400 -0.000006 -0.000013 -10.020500 2.030680 -26.336100 11.754300 -0.000000 0.000003 0.001613 0.034109 -15.193100 -2.192510 6.469440 -0.000001 -161.412000 6.606450 151.683000 -39.081100 -0.002282 -0.040193 0.293610 -0.354805 39.293100 -40.985400 0.000008 0.000006 12.252400 -9.137430 -72.118100 -11.754300 -0.000006 -0.000006 -0.001168 0.185432 -9.051090
